<svg width="61" height="64" viewBox="0 0 61 64" fill="none" xmlns="http://www.w3.org/2000/svg">
<g clip-path="url(#clip0_73_1035)">
<path d="M13.176 44.16C10.728 44.16 8.88 43.488 7.632 42.144C6.432 40.848 5.832 39.048 5.832 36.744C5.832 35.4 6.048 33.912 6.48 32.28C7.152 29.592 8.16 27 9.504 24.504C10.896 21.96 12.504 19.584 14.328 17.376C10.2 17.232 6.936 16.536 4.536 15.288C2.184 13.992 1.008 12.384 1.008 10.464C1.008 9.168 1.392 8.088 2.16 7.224C2.928 6.36 3.888 5.664 5.04 5.136C6.24 4.608 7.488 4.224 8.784 3.984C10.128 3.744 11.352 3.6 12.456 3.552C13.8 3.552 15.24 3.624 16.776 3.768C18.312 3.912 19.968 4.176 21.744 4.56C21.984 4.608 22.056 4.704 21.96 4.848C21.912 4.992 21.768 5.04 21.528 4.992C20.52 4.848 19.392 4.752 18.144 4.704C16.944 4.656 15.84 4.632 14.832 4.632C13.968 4.632 12.888 4.728 11.592 4.92C10.296 5.064 9.024 5.352 7.776 5.784C6.528 6.168 5.472 6.768 4.608 7.584C3.792 8.4 3.384 9.48 3.384 10.824C3.384 12.312 4.32 13.584 6.192 14.64C8.064 15.696 11.04 16.272 15.12 16.368C17.76 13.344 20.64 10.68 23.76 8.376C26.928 6.024 30.096 4.2 33.264 2.904C36.432 1.608 39.36 0.959996 42.048 0.959996C43.728 0.959996 44.952 1.272 45.72 1.896C46.488 2.472 46.872 3.24 46.872 4.2C46.872 5.304 46.416 6.456 45.504 7.656C46.032 8.568 46.296 9.648 46.296 10.896C46.296 12.144 46.056 13.56 45.576 15.144C44.808 17.592 43.56 20.16 41.832 22.848C40.104 25.488 38.064 28.08 35.712 30.624C33.408 33.168 30.936 35.472 28.296 37.536C25.704 39.552 23.088 41.16 20.448 42.36C17.856 43.56 15.432 44.16 13.176 44.16ZM20.088 16.08C20.664 15.984 21.264 15.912 21.888 15.864C22.512 15.768 23.136 15.648 23.76 15.504C26.4 12.672 29.232 10.344 32.256 8.52C35.28 6.648 38.184 5.688 40.968 5.64C42.408 5.64 43.536 5.952 44.352 6.576C44.976 5.76 45.288 4.92 45.288 4.056C45.288 3.336 44.976 2.76 44.352 2.328C43.776 1.848 42.816 1.608 41.472 1.608C39.552 1.608 37.368 2.28 34.92 3.624C32.472 4.92 29.952 6.648 27.36 8.808C24.816 10.968 22.392 13.392 20.088 16.08ZM26.136 15C28.632 14.424 31.152 13.704 33.696 12.84C36.288 11.928 38.544 10.944 40.464 9.888C41.472 9.36 42.384 8.688 43.2 7.872C42.624 7.248 41.736 6.936 40.536 6.936C38.04 7.032 35.568 7.824 33.12 9.312C30.672 10.8 28.344 12.696 26.136 15ZM13.464 43.224C15.576 43.224 17.832 42.624 20.232 41.424C22.632 40.224 25.032 38.616 27.432 36.6C29.832 34.584 32.088 32.328 34.2 29.832C36.312 27.336 38.16 24.768 39.744 22.128C41.328 19.44 42.504 16.896 43.272 14.496C43.512 13.68 43.68 12.936 43.776 12.264C43.92 11.592 43.992 11.016 43.992 10.536C43.992 10.296 43.992 10.104 43.992 9.96C43.992 9.768 43.968 9.576 43.92 9.384C43.488 9.816 42.912 10.272 42.192 10.752C39.84 12.24 37.08 13.464 33.912 14.424C30.792 15.384 27.72 16.104 24.696 16.584C23.352 18.168 21.96 19.968 20.52 21.984C19.08 23.952 17.76 26.04 16.56 28.248C15.408 30.408 14.496 32.568 13.824 34.728C13.2 36.888 12.984 38.904 13.176 40.776C12.696 39.768 12.456 38.568 12.456 37.176C12.456 35.448 12.816 33.624 13.536 31.704C14.256 29.736 15.144 27.816 16.2 25.944C17.304 24.072 18.408 22.368 19.512 20.832C20.664 19.248 21.672 17.952 22.536 16.944C21.96 16.992 21.384 17.04 20.808 17.088C20.232 17.136 19.68 17.184 19.152 17.232C16.944 19.968 14.976 22.8 13.248 25.728C11.568 28.608 10.392 31.392 9.72 34.08C9.288 35.712 9.072 37.152 9.072 38.4C9.072 39.888 9.432 41.064 10.152 41.928C10.872 42.792 11.976 43.224 13.464 43.224ZM35.7249 42C34.5729 42 33.7569 41.76 33.2769 41.28C32.7969 40.752 32.5569 40.104 32.5569 39.336C32.5569 38.52 32.7489 37.632 33.1329 36.672C33.5169 35.712 33.9729 34.752 34.5009 33.792C35.4129 32.256 36.5409 30.72 37.8849 29.184C39.2769 27.648 40.6929 26.232 42.1329 24.936C43.6209 23.64 44.9169 22.56 46.0209 21.696C47.0769 20.784 48.1809 20.064 49.3329 19.536C48.7089 19.584 48.0849 19.632 47.4609 19.68C46.8849 19.728 46.3329 19.776 45.8049 19.824C44.7969 19.872 43.8609 19.992 42.9969 20.184C42.1809 20.328 41.4129 20.616 40.6929 21.048C40.9329 20.232 41.4369 19.56 42.2049 19.032C43.0209 18.456 43.8369 18.144 44.6529 18.096C45.4689 18 46.4769 18 47.6769 18.096C48.8769 18.192 49.9809 18.24 50.9889 18.24C51.2769 18.24 51.6129 18.216 51.9969 18.168C52.4289 18.12 52.7649 18 53.0049 17.808C53.0049 18.288 52.6449 18.696 51.9249 19.032C51.6369 19.176 51.3489 19.32 51.0609 19.464C50.7729 19.608 50.5329 19.752 50.3409 19.896C49.8609 20.232 49.3809 20.616 48.9009 21.048C48.4689 21.48 48.0129 21.936 47.5329 22.416C43.8369 26.016 40.6209 30.24 37.8849 35.088C37.4529 35.856 37.0689 36.6 36.7329 37.32C36.4449 37.992 36.3009 38.544 36.3009 38.976C36.3009 39.504 36.5889 39.768 37.1649 39.768C38.0289 39.768 39.1089 39.36 40.4049 38.544C41.7009 37.728 43.1169 36.624 44.6529 35.232C46.1889 33.84 47.7009 32.256 49.1889 30.48C49.7169 29.856 50.3889 28.944 51.2049 27.744C52.0689 26.544 52.8609 25.368 53.5809 24.216C54.3489 23.064 54.8529 22.272 55.0929 21.84C56.1969 19.968 57.2769 18.84 58.3329 18.456C59.4369 18.024 60.4449 17.856 61.3569 17.952C61.0209 18.432 60.3969 19.224 59.4849 20.328C58.6209 21.432 57.5889 22.68 56.3889 24.072C55.2369 25.464 54.0609 26.856 52.8609 28.248C51.7089 29.592 50.6529 30.792 49.6929 31.848C48.7809 32.904 48.1329 33.648 47.7489 34.08C46.5009 35.376 45.2049 36.648 43.8609 37.896C42.5649 39.096 41.2209 40.08 39.8289 40.848C38.4849 41.616 37.1169 42 35.7249 42Z" fill="white"/>
<path d="M17.9805 61.1406C17.0938 61.1406 16.3848 60.8613 15.8535 60.3027C15.3262 59.7402 15.0625 58.9961 15.0625 58.0703C15.0625 57.0625 15.3379 56.2754 15.8887 55.709C16.4395 55.1426 17.1836 54.8594 18.1211 54.8594C19.0156 54.8594 19.7129 55.1348 20.2129 55.6855C20.7168 56.2363 20.9688 57 20.9688 57.9766C20.9688 58.9336 20.6973 59.7012 20.1543 60.2793C19.6152 60.8535 18.8906 61.1406 17.9805 61.1406ZM18.0508 55.668C17.4336 55.668 16.9453 55.8789 16.5859 56.3008C16.2266 56.7188 16.0469 57.2969 16.0469 58.0352C16.0469 58.7461 16.2285 59.3066 16.5918 59.7168C16.9551 60.127 17.4414 60.332 18.0508 60.332C18.6719 60.332 19.1484 60.1309 19.4805 59.7285C19.8164 59.3262 19.9844 58.7539 19.9844 58.0117C19.9844 57.2617 19.8164 56.6836 19.4805 56.2773C19.1484 55.8711 18.6719 55.668 18.0508 55.668ZM23.4648 60.748C23.4648 61.7324 23.2656 62.4902 22.8672 63.0215C22.4727 63.5566 21.9062 63.8242 21.168 63.8242C20.8945 63.8242 20.6289 63.7617 20.3711 63.6367V62.7402C20.6602 62.916 20.9336 63.0039 21.1914 63.0039C22.0664 63.0039 22.5039 62.3047 22.5039 60.9062V55H23.4648V60.748ZM22.9961 53.4766C22.8242 53.4766 22.6777 53.418 22.5566 53.3008C22.4355 53.1836 22.375 53.0352 22.375 52.8555C22.375 52.6758 22.4355 52.5273 22.5566 52.4102C22.6777 52.2891 22.8242 52.2285 22.9961 52.2285C23.1719 52.2285 23.3203 52.2891 23.4414 52.4102C23.5664 52.5273 23.6289 52.6758 23.6289 52.8555C23.6289 53.0273 23.5664 53.1738 23.4414 53.2949C23.3203 53.416 23.1719 53.4766 22.9961 53.4766ZM27.918 61.1406C27.0312 61.1406 26.3223 60.8613 25.791 60.3027C25.2637 59.7402 25 58.9961 25 58.0703C25 57.0625 25.2754 56.2754 25.8262 55.709C26.377 55.1426 27.1211 54.8594 28.0586 54.8594C28.9531 54.8594 29.6504 55.1348 30.1504 55.6855C30.6543 56.2363 30.9062 57 30.9062 57.9766C30.9062 58.9336 30.6348 59.7012 30.0918 60.2793C29.5527 60.8535 28.8281 61.1406 27.918 61.1406ZM27.9883 55.668C27.3711 55.668 26.8828 55.8789 26.5234 56.3008C26.1641 56.7188 25.9844 57.2969 25.9844 58.0352C25.9844 58.7461 26.166 59.3066 26.5293 59.7168C26.8926 60.127 27.3789 60.332 27.9883 60.332C28.6094 60.332 29.0859 60.1309 29.418 59.7285C29.7539 59.3262 29.9219 58.7539 29.9219 58.0117C29.9219 57.2617 29.7539 56.6836 29.418 56.2773C29.0859 55.8711 28.6094 55.668 27.9883 55.668Z" fill="#D9D9D9"/>
<path d="M37.1582 55L34.7676 61H33.8242L31.5508 55H32.6055L34.1289 59.3594C34.2422 59.6797 34.3125 59.959 34.3398 60.1973H34.3633C34.4023 59.8965 34.4648 59.625 34.5508 59.3828L36.1445 55H37.1582ZM38.6875 53.4766C38.5156 53.4766 38.3691 53.418 38.248 53.3008C38.127 53.1836 38.0664 53.0352 38.0664 52.8555C38.0664 52.6758 38.127 52.5273 38.248 52.4102C38.3691 52.2891 38.5156 52.2285 38.6875 52.2285C38.8633 52.2285 39.0117 52.2891 39.1328 52.4102C39.2578 52.5273 39.3203 52.6758 39.3203 52.8555C39.3203 53.0273 39.2578 53.1738 39.1328 53.2949C39.0117 53.416 38.8633 53.4766 38.6875 53.4766ZM39.1562 61H38.1953V55H39.1562V61ZM45.2852 55.2754L41.7344 60.1797H45.25V61H40.3223V60.7012L43.873 55.8203H40.6562V55H45.2852V55.2754Z" fill="#979797"/>
</g>
<defs>
<clipPath id="clip0_73_1035">
<rect width="61" height="64" fill="white"/>
</clipPath>
</defs>
</svg>
